# xmcd
#
# Track frame offsets:
#	150
#	22592
#	42416
#	58374
#	84447
#	104379
#	118361
#	141972
#	166867
#	185352
#	210555
#
# Disc length: 3065 seconds
# Revision: 0
# Processed by: cddbd v1.5.2PL0 Copyright (c) Steve Scherf et al.
# Submitted via: dBpowerAMP V12.0
#
DISCID=950bf70b
DTITLE=Martha Scanlan - The West Was Burning
DYEAR=2007
DGENRE=Country
TTITLE0=The West Was Burning
TTITLE1=Get Right Church
TTITLE2=Went to See the Gypsy
TTITLE3=Seeds of the Pine
TTITLE4=I Don't Even Have to Ask
TTITLE5=Call Me Shorty
TTITLE6=Walkin'
TTITLE7=Up on the Divide
TTITLE8=Set Me Up High
TTITLE9=Isabella
TTITLE10=Ten Thousand Charms (Come Thou Fount of Every Blessing)
EXTD=
EXTT0=
EXTT1=
EXTT2=
EXTT3=
EXTT4=
EXTT5=
EXTT6=
EXTT7=
EXTT8=
EXTT9=
EXTT10=
PLAYORDER=
